# xmcd
#
# Track frame offsets:
#	150
#	42305
#	75743
#	127588
#	140117
#	180926
#	250718
#	302580
#
# Disc length: 4701 seconds
#
# Revision: 1
# Processed by: cddbd v1.5.2PL0 Copyright (c) Steve Scherf et al.
# Submitted via: audiograbber 1.83.01
#
DISCID=5b125b08
DTITLE=Grateful Dead - 92-05-21 Cal Expo Amphitheatre, Sacrimento CA
DYEAR=1900
DGENRE=
TTITLE0=Touch Of Grey
TTITLE1=Wang Dang Doodle
TTITLE2=Row Jimmy
TTITLE3=Me and My Uncle
TTITLE4=Maggie's Farm
TTITLE5=Bird Song
TTITLE6=Scarlet Begonias
TTITLE7=Fire On The Mountain
EXTD=
EXTT0=
EXTT1=
EXTT2=
EXTT3=
EXTT4=
EXTT5=
EXTT6=
EXTT7=
PLAYORDER=
